<svg width="21" height="18" viewBox="0 0 21 18" fill="none" xmlns="http://www.w3.org/2000/svg">
<path d="M1.79159 10.3639C1.65 10.5398 1.54888 10.6819 1.43426 10.8172C1.13761 11.169 0.658934 11.2164 0.308351 10.9458C-0.028748 10.6752 -0.109652 10.2016 0.166769 9.83624C0.706128 9.11233 1.25897 8.40196 1.81181 7.69158C2.02756 7.4142 2.31746 7.33301 2.64782 7.44803C2.7894 7.49539 2.93772 7.55627 3.05234 7.64423C3.73328 8.1584 4.40747 8.67258 5.07493 9.20028C5.35135 9.41678 5.42551 9.71446 5.33787 10.0392C5.25696 10.3572 5.02774 10.5872 4.70412 10.6075C4.48838 10.621 4.24567 10.5398 4.05015 10.4316C3.82766 10.3166 3.63215 10.1272 3.42989 9.97155C3.40292 9.98508 3.37595 9.99861 3.35573 10.0121C3.51079 10.5331 3.63215 11.0676 3.83441 11.5682C4.98054 14.4503 7.81217 16.277 10.8933 16.0943C13.172 15.959 15.0059 14.9442 16.3677 13.0972C16.4217 13.0228 16.4756 12.9416 16.5296 12.8672C16.8127 12.4883 17.2779 12.4003 17.642 12.6507C18.0195 12.901 18.1139 13.3949 17.851 13.7873C17.2914 14.633 16.6105 15.3569 15.7947 15.9657C10.6236 19.8356 3.16695 16.9941 1.85901 10.6481C1.84552 10.5669 1.8253 10.4857 1.79159 10.3639Z" fill="white"/>
<path d="M17.5746 7.75251C17.2375 5.62139 16.1992 3.95032 14.4058 2.78666C11.1292 0.655537 6.80763 1.51475 4.56255 4.72834C4.46142 4.87719 4.32658 5.02603 4.17826 5.11398C3.85464 5.31017 3.46361 5.22899 3.21416 4.9516C2.9647 4.66746 2.93774 4.26153 3.16696 3.91649C4.13781 2.46868 5.41204 1.38621 7.00989 0.716426C12.0529 -1.41469 17.6959 1.39297 19.0578 6.69709C19.1117 6.90006 19.1522 7.10979 19.2061 7.35334C19.3275 7.2045 19.4286 7.07596 19.5297 6.94742C19.8399 6.56178 20.3253 6.49413 20.6894 6.77151C21.0467 7.0489 21.1074 7.52925 20.8107 7.92164C20.2848 8.61849 19.7522 9.31533 19.2129 10.0054C18.9634 10.3234 18.6735 10.4046 18.296 10.2557C18.1544 10.2016 18.0195 10.1272 17.8982 10.0392C17.2509 9.54535 16.6037 9.04471 15.9565 8.54407C15.6801 8.33434 15.5857 8.04342 15.6598 7.71191C15.734 7.38717 15.9497 7.18421 16.2734 7.10979C16.5296 7.0489 16.7588 7.12332 16.961 7.27892C17.17 7.43453 17.3723 7.5969 17.5746 7.75251Z" fill="white"/>
</svg>
